<svg width="86" height="42" viewBox="0 0 86 42" fill="none" xmlns="http://www.w3.org/2000/svg">
<rect x="1.5" y="1.5" width="83" height="39" rx="8.5" stroke="#DB3F59" stroke-width="3"/>
<rect x="17" y="28" width="41" height="7" rx="3.5" fill="#DB3F59"/>
<rect x="7" y="28" width="7" height="7" rx="3" fill="#DB3F59"/>
<rect x="61" y="28" width="7" height="7" rx="3" fill="#DB3F59"/>
<rect x="72" y="28" width="7" height="7" rx="3" fill="#DB3F59"/>
<rect x="7" y="18" width="7" height="7" rx="3" fill="#DB3F59"/>
<rect x="61" y="18" width="7" height="7" rx="3" fill="#DB3F59"/>
<rect x="72" y="18" width="7" height="7" rx="3" fill="#DB3F59"/>
<rect x="39" y="18" width="7" height="7" rx="3" fill="#DB3F59"/>
<rect x="50" y="18" width="7" height="7" rx="3" fill="#DB3F59"/>
<rect x="18" y="18" width="7" height="7" rx="3" fill="#DB3F59"/>
<rect x="29" y="18" width="7" height="7" rx="3" fill="#DB3F59"/>
<rect x="7" y="8" width="7" height="7" rx="3" fill="#DB3F59"/>
<rect x="61" y="8" width="7" height="7" rx="3" fill="#DB3F59"/>
<rect x="72" y="8" width="7" height="7" rx="3" fill="#DB3F59"/>
<rect x="39" y="8" width="7" height="7" rx="3" fill="#DB3F59"/>
<rect x="50" y="8" width="7" height="7" rx="3" fill="#DB3F59"/>
<rect x="18" y="8" width="7" height="7" rx="3" fill="#DB3F59"/>
<rect x="29" y="8" width="7" height="7" rx="3" fill="#DB3F59"/>
</svg>
